<svg xmlns="http://www.w3.org/2000/svg" viewBox="0 0 1000 1000" width="1000" height="1000">
	<defs>
		<clipPath clipPathUnits="userSpaceOnUse" id="cp1">
			<path d="M0 -2L1000 -2L1000 998L0 998Z" />
		</clipPath>
		<clipPath clipPathUnits="userSpaceOnUse" id="cp2">
			<path d="M0 0.01L0 451.05C138.46 555.45 310.76 617.33 497.5 617.33C686.5 617.33 860.7 553.95 1000 447.27L1000 0.01L0 0.01Z" />
		</clipPath>
		<linearGradient id="grd1" gradientUnits="userSpaceOnUse"  x1="319.919" y1="471.626" x2="319.919" y2="213.234">
			<stop offset="0" stop-color="#c8421b"  />
			<stop offset="1" stop-color="#ffffff"  />
		</linearGradient>
		<linearGradient id="grd2" gradientUnits="userSpaceOnUse"  x1="683.804" y1="473.332" x2="683.804" y2="212.557">
			<stop offset="0" stop-color="#c8421b"  />
			<stop offset="1" stop-color="#ffffff"  />
		</linearGradient>
		<linearGradient id="grd3" gradientUnits="userSpaceOnUse"  x1="493.001" y1="377.029" x2="493.001" y2="477.484">
			<stop offset="0" stop-color="#cfa58b"  />
			<stop offset="1" stop-color="#f2cfb2"  />
		</linearGradient>
		<linearGradient id="grd4" gradientUnits="userSpaceOnUse"  x1="492.997" y1="244.61" x2="492.997" y2="388.388">
			<stop offset="0" stop-color="#cfa58b"  />
			<stop offset="1" stop-color="#f2cfb2"  />
		</linearGradient>
		<linearGradient id="grd5" gradientUnits="userSpaceOnUse"  x1="494.295" y1="179.6" x2="494.295" y2="226.997">
			<stop offset="0" stop-color="#9ed1e1"  />
			<stop offset="1" stop-color="#65a3b2"  />
		</linearGradient>
		<linearGradient id="grd6" gradientUnits="userSpaceOnUse"  x1="492.994" y1="484.412" x2="492.994" y2="628.673">
			<stop offset="0" stop-color="#9ed1e1"  />
			<stop offset="1" stop-color="#65a3b2"  />
		</linearGradient>
		<linearGradient id="grd7" gradientUnits="userSpaceOnUse"  x1="530.142" y1="180.338" x2="530.142" y2="227.314">
			<stop offset="0" stop-color="#9ed1e1"  />
			<stop offset="1" stop-color="#65a3b2"  />
		</linearGradient>
		<linearGradient id="grd8" gradientUnits="userSpaceOnUse"  x1="461.586" y1="180.338" x2="461.586" y2="227.314">
			<stop offset="0" stop-color="#9ed1e1"  />
			<stop offset="1" stop-color="#65a3b2"  />
		</linearGradient>
		<clipPath clipPathUnits="userSpaceOnUse" id="cp3">
			<path d="M0 0.01L0 451.05C138.46 555.45 310.76 617.33 497.5 617.33C686.5 617.33 860.7 553.95 1000 447.27L1000 0.01L0 0.01Z" />
		</clipPath>
		<linearGradient id="grd9" gradientUnits="userSpaceOnUse"  x1="486.363" y1="351.734" x2="504.482" y2="351.734">
			<stop offset="0" stop-color="#d59a74"  />
			<stop offset="1" stop-color="#e6ae8a"  />
		</linearGradient>
		<linearGradient id="grd10" gradientUnits="userSpaceOnUse"  x1="477.649" y1="369.484" x2="515.652" y2="376.902">
			<stop offset="0" stop-color="#d59a74"  />
			<stop offset="1" stop-color="#e6ae8a"  />
		</linearGradient>
		<clipPath clipPathUnits="userSpaceOnUse" id="cp4">
			<path d="M0 0.01L0 451.05C138.46 555.45 310.76 617.33 497.5 617.33C686.5 617.33 860.7 553.95 1000 447.27L1000 0.01L0 0.01Z" />
		</clipPath>
		<linearGradient id="grd11" gradientUnits="userSpaceOnUse"  x1="364.43" y1="282.889" x2="364.43" y2="438.426">
			<stop offset="0" stop-color="#cfa58b"  />
			<stop offset="1" stop-color="#f2cfb2"  />
		</linearGradient>
		<linearGradient id="grd12" gradientUnits="userSpaceOnUse"  x1="347.578" y1="178.155" x2="347.578" y2="326.678">
			<stop offset="0" stop-color="#9ed1e1"  />
			<stop offset="1" stop-color="#65a3b2"  />
		</linearGradient>
		<clipPath clipPathUnits="userSpaceOnUse" id="cp5">
			<path d="M0 0.01L0 451.05C138.46 555.45 310.76 617.33 497.5 617.33C686.5 617.33 860.7 553.95 1000 447.27L1000 0.01L0 0.01Z" />
		</clipPath>
		<linearGradient id="grd13" gradientUnits="userSpaceOnUse"  x1="625.243" y1="282.889" x2="625.243" y2="438.426">
			<stop offset="0" stop-color="#cfa58b"  />
			<stop offset="1" stop-color="#f2cfb2"  />
		</linearGradient>
		<linearGradient id="grd14" gradientUnits="userSpaceOnUse"  x1="642.095" y1="178.155" x2="642.095" y2="326.678">
			<stop offset="0" stop-color="#9ed1e1"  />
			<stop offset="1" stop-color="#65a3b2"  />
		</linearGradient>
		<clipPath clipPathUnits="userSpaceOnUse" id="cp6">
			<path d="M0 0.01L0 451.05C138.46 555.45 310.76 617.33 497.5 617.33C686.5 617.33 860.7 553.95 1000 447.27L1000 0.01L0 0.01Z" />
		</clipPath>
		<linearGradient id="grd15" gradientUnits="userSpaceOnUse"  x1="490.509" y1="387.634" x2="505.016" y2="390.466">
			<stop offset="0" stop-color="#d59a74"  />
			<stop offset="1" stop-color="#e6ae8a"  />
		</linearGradient>
		<clipPath clipPathUnits="userSpaceOnUse" id="cp7">
			<path d="M0 0.01L0 451.05C138.46 555.45 310.76 617.33 497.5 617.33C686.5 617.33 860.7 553.95 1000 447.27L1000 0.01L0 0.01Z" />
		</clipPath>
		<linearGradient id="grd16" gradientUnits="userSpaceOnUse"  x1="505.474" y1="677.848" x2="505.474" y2="479.699">
			<stop offset="0" stop-color="#ffffff"  />
			<stop offset="1" stop-color="#fea5ab"  />
		</linearGradient>
	</defs>
	<style>
		tspan { white-space:pre }
		.txt0 { font-size: 32px;fill: #65a3b2;font-weight: 400;font-family: "Montserrat-Regular", "Montserrat" } 
		.txt1 { font-size: 170px;fill: #65a3b2;font-weight: 700;font-family: "LeagueSpartan-Bold", "League Spartan" } 
		.shp2 { fill: #e3a096 } 
		.shp3 { fill: #df6f62 } 
		.shp4 { fill: #bd493e } 
		.shp5 { mix-blend-mode: multiply;fill: url(#grd1) } 
		.shp6 { mix-blend-mode: multiply;fill: url(#grd2) } 
		.shp7 { fill: url(#grd3) } 
		.shp8 { fill: url(#grd4) } 
		.shp9 { fill: url(#grd5) } 
		.shp10 { fill: url(#grd6) } 
		.shp11 { fill: url(#grd7) } 
		.shp12 { fill: url(#grd8) } 
		.shp13 { fill: #2f4d73 } 
		.shp14 { fill: #3a5a88 } 
		.shp15 { fill: url(#grd9) } 
		.shp16 { fill: url(#grd10) } 
		.shp17 { fill: url(#grd11) } 
		.shp18 { fill: url(#grd12) } 
		.shp19 { fill: url(#grd13) } 
		.shp20 { fill: url(#grd14) } 
		.shp21 { fill: url(#grd15) } 
		.shp22 { fill: #d7d8f4 } 
		.shp23 { fill: #f7f7f9 } 
		.shp24 { opacity: 0.671;mix-blend-mode: screen;fill: url(#grd16) } 
	</style>
	<g id="Page 1" clip-path="url(#cp1)">
		<text id="Sorry, page not found " style="transform: matrix(1,0,0,1,326.16,858.141)" >
			<tspan x="0" y="0" class="txt0">Sorry, page not found</tspan>
		</text>
		<text id="404 " style="transform: matrix(1,0,0,1,327.112,808.398)" >
			<tspan x="0" y="0" class="txt1">404</tspan>
		</text>
		<g id="Mask" clip-path="url(#cp2)">
			<path id="Path 4" class="shp2" d="M636.58 355.34C633.82 347.77 630.25 339.92 631.71 332.01C633.17 324.09 642.68 317.28 649.31 321.84C653.41 324.66 654.53 330.37 658.29 333.62C664.1 338.65 674.02 335.19 677.75 328.47C681.47 321.75 680.45 313.37 678.02 306.08C675.59 298.79 671.86 291.91 670.32 284.38C668.79 276.85 669.95 268.09 675.82 263.12C681.68 258.16 692.73 259.94 694.66 267.38C695.43 270.32 694.78 273.71 696.49 276.23C699.28 280.33 706.26 278.52 708.86 274.31C711.47 270.09 711.19 264.79 711.39 259.84C712.31 237.34 725.65 215.75 745.35 204.86C751.43 201.5 759.01 199.15 765.18 202.35C774.15 207.01 774.3 219.83 771.54 229.55C767.51 243.79 759.94 257.01 749.7 267.7C745.35 272.24 740.5 276.37 736.93 281.54C733.35 286.71 731.15 293.3 732.93 299.33C734.71 305.36 741.49 310.03 747.41 307.93C753.93 305.63 757.36 296.6 764.27 296.71C771.6 296.83 773.99 307.12 771.55 314.03C767.81 324.66 757.83 332.83 746.67 334.39C741.11 335.17 735.29 334.45 730.01 336.36C724.74 338.26 720.26 344.39 722.87 349.35C725.46 354.3 732.38 354.23 737.59 356.22C748.47 360.38 751.22 377.38 742.21 384.76C730.72 394.17 712.49 385.34 699.02 391.6C690.14 395.72 685.36 405.54 683.19 415.08C681.02 424.62 680.75 434.6 677.51 443.84C674.28 453.07 666.96 461.87 657.23 462.79C633.84 465.01 638.23 437.99 640.99 423.65C645.41 400.7 644.63 377.45 636.58 355.34Z" />
			<path id="Path 5" class="shp3" d="M710.63 472.47C744.29 440.22 785.88 414.9 831.77 406.69C844.32 404.45 859.48 404.48 867.11 414.69C873.16 422.77 871.77 434.59 866.49 443.2C861.21 451.81 852.8 457.93 844.6 463.83C826.95 476.51 809.31 489.2 791.66 501.88L715.45 556.67C692.44 573.21 667.21 598.38 641.05 609.29C625.21 615.89 604.15 606.48 611.97 587.95C618.46 572.59 637.78 560.83 648.22 548.13C669.17 522.65 686.59 495.49 710.63 472.47ZM324.26 371.24C297.94 310.82 276.1 244.92 287.16 179.96C289.45 166.47 293.3 152.9 301.34 141.83C309.38 130.75 322.22 122.48 335.9 122.73C349.9 123 362.58 132.08 370.6 143.56C378.63 155.04 382.76 168.73 386.48 182.23C407.11 256.96 419.22 334.26 419.94 411.85C420.3 450.75 418.59 490.58 411.9 528.97C404.83 569.56 381.05 508.27 376.8 495.59C362.49 452.86 342.23 412.47 324.26 371.24ZM362.92 416.25C339.08 376.19 305.76 340.69 263.72 320.54C252.23 315.03 237.61 311.01 227.53 318.81C219.54 324.98 217.73 336.75 220.52 346.45C223.31 356.16 229.79 364.31 236.12 372.18C249.74 389.11 263.36 406.04 276.98 422.97C296.59 447.35 316.2 471.73 335.81 496.11C353.57 518.19 371.16 549.19 393.47 566.68C406.97 577.26 429.78 573.82 427.18 553.88C425.03 537.34 409.55 520.85 402.87 505.82C389.48 475.67 379.94 444.86 362.92 416.25ZM499.81 455.44C503.1 408.94 516.91 362.25 545.41 325.35C553.19 315.27 564.45 305.11 576.96 307.55C586.87 309.47 593.78 319.16 595.65 329.09C597.51 339.01 595.39 349.2 593.27 359.08C588.72 380.33 584.16 401.57 579.6 422.82C573.04 453.41 566.48 484 559.92 514.6C553.97 542.3 552.18 577.9 540.12 603.55C532.82 619.07 510.89 626.25 504.25 607.27C498.74 591.52 505.16 569.84 504.37 553.41C502.78 520.46 497.45 488.65 499.81 455.44ZM594.61 455.01C612.74 412.06 640.89 372.33 679.77 346.61C690.4 339.58 704.33 333.6 715.38 339.95C724.14 344.97 727.55 356.37 726.11 366.37C724.68 376.37 719.38 385.33 714.18 393.99C703.01 412.63 691.84 431.26 680.66 449.9C664.58 476.74 648.49 503.57 632.4 530.4C617.83 554.71 604.65 587.82 584.95 608.2C573.02 620.54 549.95 620.25 549.8 600.14C549.67 583.46 562.75 565.01 567.3 549.21C576.44 517.51 581.66 485.68 594.61 455.01Z" />
			<path id="Path 6" class="shp4" d="M324.75 472.02C290.64 462.04 257.65 448.22 226.62 430.89C224.07 429.47 221.44 427.93 219.81 425.5C218.19 423.07 217.92 419.47 220 417.42C221.47 415.96 223.74 415.58 225.22 414.14C227.39 412.04 227.09 408.3 225.36 405.83C223.63 403.35 220.86 401.86 218.16 400.5C199.19 390.93 177.28 382.12 168.44 362.79C166.18 357.85 164.95 352.48 162.53 347.62C153.69 329.81 111.39 315.48 125.69 301.67C137.83 289.95 157.06 314.75 169.28 326.37C177.17 333.88 185.41 343.33 196.3 343.02C200.7 342.89 205.01 341.1 209.38 341.63C217.19 342.59 222.1 350.38 225.42 357.52C228.73 364.67 232.34 372.74 239.69 375.55C244.95 377.56 250.84 376.3 256.43 376.93C269.5 378.42 278.94 389.7 286.95 400.13C300.39 417.65 313.84 435.16 327.28 452.67C333.9 461.29 340.89 472.04 337.11 482.23L309.47 464.64" />
			<path id="Path 7" class="shp3" d="M759.89 439.4C801.38 388.2 840.02 330.52 846.7 264.96C848.08 251.35 847.99 237.24 843.2 224.43C838.42 211.61 828.25 200.21 814.99 196.8C801.43 193.32 786.79 198.69 775.99 207.62C765.19 216.53 757.56 228.63 750.37 240.65C710.55 307.16 678.25 378.43 656.85 453.01C646.12 490.41 637.14 529.24 633.34 568.03C629.32 609.03 668.6 556.32 676.08 545.23C701.27 507.86 731.57 474.35 759.89 439.4Z" />
			<path id="Path 8" class="shp2" d="M818.1 293.93C818.09 293.84 818.07 293.74 818.05 293.64C817.98 293.27 817.53 292.92 817.15 292.96C816.34 293.03 816.22 293.09 815.63 293.56C813.8 295.01 812.75 298.48 811.04 300.33C806.65 305.09 801.19 309.15 796 312.98C791.3 316.45 786.45 319.91 781.2 322.51C778.28 323.96 775.24 325.19 772.02 325.81C769.79 326.24 767.54 326.07 765.33 326.27C773.78 309.42 781.17 292.02 787.76 274.39C795.36 254.05 801.62 233.16 813.79 214.95C814.29 214.21 813.13 213.57 812.62 214.26C801.7 229.17 795.48 246.66 789.16 263.86C787.45 268.51 785.7 273.14 783.92 277.76C779.41 273.14 777.98 265.17 776.89 258.93C775.76 252.5 775.65 246.06 776.06 239.59C776.83 239.65 777.47 238.79 776.83 238.02C776.5 237.62 776.17 237.23 775.85 236.83C775.15 236 774.03 236.77 773.93 237.63C773.07 245.52 773.51 253.52 775.11 261.29C776.2 266.58 777.41 275.34 782.27 278.57C782.53 278.74 782.9 278.73 783.16 278.57C783.35 278.46 783.54 278.35 783.73 278.23C778.75 291.08 773.44 303.79 767.51 316.25C758.79 334.6 748.82 352.12 737.52 368.74C736.31 365.14 734.34 361.77 733.02 358.19C731.7 354.62 730.63 350.98 729.8 347.27C728.85 343.1 728.23 338.85 727.95 334.58C727.86 333.25 727.55 320.72 729.22 321.31C729.82 321.52 730.29 320.78 730.01 320.28C729.87 320.01 729.72 319.75 729.58 319.48C729.35 319.06 728.84 318.9 728.4 319C725.3 319.71 725.74 323.18 725.64 325.82C725.44 330.88 725.74 335.95 726.45 340.96C727.77 350.3 730.42 362.58 736.65 370.01C727 384.09 716.38 397.52 704.71 410.23C690.33 425.89 673.8 440.66 662.04 458.49C661.66 459.06 662.52 459.72 663 459.22C676.47 445.08 689.39 430.33 702.71 416.01C708.84 409.42 714.8 402.7 720.53 395.79C720.4 396.25 720.56 396.76 721.15 396.87C730.68 398.57 742.97 398.47 752.34 395.94C753.36 395.66 753.15 394.11 752.09 394.1C746.99 394.04 741.87 394.9 736.77 395.06C731.64 395.22 726.51 394.81 721.4 395.04C721.29 395.04 721.19 395.07 721.1 395.11C727.02 387.93 732.68 380.54 737.99 372.85C747.83 358.58 756.55 343.59 764.39 328.14C768.14 329.65 773.07 328.4 776.72 327.19C782.57 325.25 787.83 321.88 792.86 318.39C797.94 314.87 802.85 311.09 807.55 307.07C809.78 305.16 812 303.21 813.86 300.92C814.12 300.59 816.49 297.13 817.17 295.14C817.33 295.13 817.49 295.07 817.63 294.96C817.72 294.88 817.81 294.81 817.89 294.73C818.13 294.54 818.16 294.21 818.1 293.93Z" />
			<path id="Path 9" class="shp4" d="M643.35 619.13C678.71 615.54 713.67 607.96 747.34 596.59C750.11 595.65 752.98 594.62 755.02 592.53C757.06 590.43 757.98 586.94 756.31 584.54C755.13 582.85 752.97 582.05 751.77 580.37C750.03 577.91 751.01 574.29 753.15 572.17C755.31 570.06 758.31 569.09 761.2 568.25C781.6 562.3 804.75 557.63 816.97 540.24C820.09 535.8 822.28 530.74 825.54 526.4C837.49 510.5 881.69 504.13 870.15 487.94C860.35 474.2 836.92 495.08 822.79 504.28C813.65 510.22 803.83 518.01 793.18 515.72C788.88 514.79 784.97 512.24 780.57 511.97C772.72 511.49 766.47 518.25 761.91 524.67C757.34 531.09 752.33 538.37 744.58 539.79C739.05 540.8 733.48 538.49 727.87 538.1C714.75 537.18 703.41 546.54 693.63 555.34C677.22 570.11 660.81 584.87 644.4 599.64C636.32 606.91 627.48 616.2 629.34 626.91C639.47 622.83 649.6 618.74 659.73 614.65" />
			<path id="Path 10" class="shp2" d="M860.72 491.11C832.16 500.38 808.37 519 784.05 535.96C771.47 544.72 758.62 553.12 744.78 559.78C730.67 566.56 715.9 571.8 701.43 577.73C704.36 574.26 706.25 569.2 708.92 565.6C710.79 563.08 712.83 560.67 715 558.39C716.92 556.37 720.63 551.69 723.5 551.39C724.14 551.32 724.42 550.53 723.84 550.15C723.55 549.97 723.27 549.79 722.99 549.6C722.68 549.4 722.28 549.43 721.97 549.6C716.59 552.57 711.96 558.43 708.28 563.23C705.15 567.3 700.19 573.12 699.67 578.46C684.78 584.63 669.73 591.53 657.49 602.2C656.76 602.84 657.73 604.13 658.54 603.56C671.2 594.65 684.59 587.46 698.85 581.47C702.14 580.08 705.44 578.75 708.75 577.44C717.62 581.13 728.89 587.08 738.34 582.39C738.92 582.1 738.47 581.36 737.94 581.43C732.36 582.19 727.15 581.79 721.76 580.16C717.98 579.02 714.36 577.62 710.53 576.73C720.39 572.82 730.3 569.05 739.98 564.71C767.48 552.4 790.68 533.46 815.48 516.72C829.81 507.05 844.77 498.35 861.12 492.56C862.02 492.24 861.65 490.81 860.72 491.11Z" />
			<path id="Path 11" class="shp4" d="M382.78 364.92C376.14 356.72 368.34 349.14 358.72 344.79C349.11 340.43 337.42 339.71 328.2 344.86C312.68 353.54 309.51 374.82 312.72 392.32C322.96 448.19 372.25 486.83 383.74 542.65C386.59 556.48 385.7 570.79 402.68 572.28C413.34 573.22 420.88 567.28 424.62 558.03C433.14 536.9 422.38 496.04 420.76 473.87C417.93 435.15 407.63 395.61 382.78 364.92Z" />
			<path id="Path 12" class="shp2" d="M395.21 497.05C390.64 481.47 385.34 466.11 379.6 450.92C378.73 448.62 377.84 446.33 376.95 444.04C384.08 437.59 388.49 425.31 388.51 416.13C388.51 415.23 387.06 414.98 386.9 415.91C385.95 421.16 385.13 426.14 383.01 431.09C381.24 435.22 378.67 438.65 376.29 442.32C371.68 430.49 366.84 418.76 361.89 407.06C361.21 405.46 360.51 403.86 359.82 402.25C359.96 402.2 360.1 402.14 360.24 402.04C369.62 394.72 371.01 376.95 370.57 366.13C370.5 364.45 368.21 364.54 368.02 366.13C366.66 377.44 367.3 390.85 358.72 399.68C356.56 394.67 354.39 389.67 352.21 384.67C349.11 377.59 346.34 369.74 341.38 363.71C340.92 363.15 340.18 363.86 340.45 364.43C342.32 368.45 344.13 372.51 345.96 376.56C344.92 375.95 343.63 375.75 342.46 375.22C340.06 374.12 337.81 372.63 335.87 370.84C334.2 369.3 333.09 366.79 331.34 365.48C330.45 364.81 329.76 364.66 328.84 365.26C328.45 365.52 328.19 366.02 328.34 366.5C328.56 367.18 328.7 367.39 329.4 367.59C329.84 367.72 330.3 367.28 330.16 366.83C331.31 370.47 335.1 373.39 338.22 375.35C340.26 376.62 344.19 379.16 346.69 378.16C357.84 402.87 368.25 427.98 377.76 453.36C383.24 467.98 388.32 482.76 392.71 497.74C397.27 513.28 399.97 529.37 404.64 544.85C404.8 545.38 405.67 545.3 405.64 544.71C404.73 528.68 399.71 512.38 395.21 497.05ZM358.31 326.95C349.54 321.9 341.65 316.69 334.56 309.35C328.26 302.83 322.61 295.52 316.88 288.61C316.29 287.89 315.28 288.92 315.86 289.62C318.47 292.77 320.76 296.8 323.43 300.09C326.8 304.24 330.3 308.29 334.12 312.04C340.78 318.57 348.84 325.17 357.96 327.78C358.45 327.92 358.76 327.21 358.31 326.95Z" />
			<path id="Path 13" class="shp4" d="M597.48 536.38C628.29 485.45 653.35 431.05 672.04 374.53C673.58 369.88 675.1 365.01 674.35 360.17C673.6 355.33 669.86 350.58 664.97 350.4C661.51 350.27 658.26 352.37 654.8 352.27C649.76 352.12 645.9 347.17 645.23 342.16C644.57 337.15 646.29 332.17 648.08 327.44C660.67 294.15 677.74 258.47 666.77 224.61C663.97 215.96 659.41 207.94 656.89 199.2C647.65 167.21 683.64 101.64 650.35 100.78C622.11 100.05 626.44 152.43 624.51 180.61C623.26 198.82 623.79 219.8 610 231.75C604.43 236.57 597.07 239.24 592.29 244.84C583.73 254.87 586.49 270.04 590.48 282.61C594.48 295.18 599.17 309.22 593.26 321.02C589.05 329.45 580.35 334.56 574.17 341.68C559.73 358.31 560.84 382.92 562.76 404.86C565.99 441.69 569.22 478.53 572.45 515.36C574.04 533.49 577.58 554.67 593.78 562.98C598.51 545.31 603.25 527.64 607.98 509.97" />
			<path id="Path 14" class="shp2" d="M647.62 393.21C643.03 404.93 633.18 413.22 624.02 421.38C615.4 429.06 606.58 435.84 596.49 441.25C597.25 434.43 598.14 427.63 599.18 420.84C603.14 395.13 609.68 370.27 617.47 345.48C625.03 321.44 628.38 297.43 629.77 272.32C629.98 268.46 630.16 264.59 630.33 260.72C630.57 260.71 630.82 260.65 631.05 260.47C636.53 256.23 641.23 251.05 645.21 245.39C648.55 240.64 653.29 234.11 653.6 228.15C653.64 227.51 652.7 227.07 652.27 227.59C648.57 232.14 646.77 238.46 643.41 243.39C639.72 248.81 635.26 253.44 630.45 257.83C631.3 237.1 631.73 216.35 633.53 195.68C634.76 181.41 636.59 167.2 639.71 153.21C642.63 140.12 648.42 127 648.06 113.43C648.05 113 647.35 112.87 647.28 113.33C645.25 125.77 640.93 137.59 637.98 149.81C635.15 161.51 633.22 173.41 631.83 185.36C628.88 210.76 628.63 236.39 627.5 261.91C626.36 287.8 624.3 313.38 616.8 338.31C609.41 362.92 602.08 387.15 597.76 412.55C596.06 422.57 594.69 432.65 593.6 442.76C593.42 442.85 593.24 442.95 593.06 443.04C592.33 443.4 592.7 444.51 593.4 444.55C593.04 447.99 592.72 451.43 592.43 454.88C591.19 469.6 589.94 484.69 591.05 499.44C591.14 500.6 592.76 500.6 592.85 499.44C593.83 486.55 593.75 473.59 594.7 460.68C595.12 454.93 595.66 449.19 596.27 443.46C607.58 438.8 617.18 430.4 626.19 422.35C635.49 414.05 645.06 405.67 649.72 393.79C650.23 392.49 648.13 391.92 647.62 393.21ZM624.47 291.78C611.48 283.62 605.8 270.12 600.12 256.51C599.62 255.3 597.61 255.79 598.1 257.07C603.32 270.67 610.03 286.14 623.58 293.29C624.58 293.81 625.42 292.38 624.47 291.78ZM598.85 402.67C593.06 396.54 589.18 389.42 586.97 381.28C585 374.01 584.66 366.55 583.36 359.18C583.17 358.11 581.43 358.36 581.47 359.44C582.02 375.2 585.97 392.57 597.79 403.73C598.5 404.39 599.52 403.37 598.85 402.67ZM771.37 525.04C767.66 531.08 766.22 538.6 767.69 545.56C767.82 546.15 768.83 546.03 768.76 545.41C767.96 538.27 769.02 532.05 772.53 525.72C772.95 524.96 771.82 524.3 771.37 525.04ZM354.81 426.52C352.72 415.19 339.11 405.45 329.62 411.97C323.75 416 322.15 424.17 316.77 428.83C308.45 436.03 294.26 431.07 288.93 421.45C283.6 411.84 285.06 399.85 288.54 389.42C292.02 378.99 297.35 369.14 299.55 358.37C301.75 347.59 300.09 335.05 291.69 327.95C283.3 320.84 267.48 323.4 264.72 334.04C263.63 338.25 264.56 343.11 262.11 346.7C258.12 352.57 248.14 349.99 244.41 343.95C240.68 337.92 241.07 330.34 240.78 323.25C239.47 291.06 220.39 260.16 192.19 244.58C183.49 239.77 172.64 236.4 163.82 240.98C150.98 247.65 150.77 266 154.72 279.91C160.49 300.29 171.32 319.21 185.97 334.5C192.19 341 199.13 346.9 204.25 354.3C209.36 361.7 212.51 371.13 209.97 379.76C207.42 388.39 197.72 395.07 189.24 392.07C179.92 388.78 175 375.86 165.12 376.02C154.63 376.19 151.22 390.9 154.7 400.79C160.05 416.01 174.34 427.7 190.31 429.94C198.26 431.05 206.59 430.02 214.14 432.74C221.69 435.46 228.09 444.24 224.36 451.34C220.65 458.41 210.75 458.32 203.29 461.17C187.73 467.12 183.79 491.45 196.68 502.01C213.13 515.48 239.22 502.83 258.5 511.79C271.19 517.69 278.04 531.75 281.14 545.4C284.25 559.05 284.63 573.33 289.26 586.54C293.89 599.75 304.36 612.35 318.29 613.67C351.76 616.84 345.47 578.17 341.53 557.66C335.21 524.82 336.32 491.55 347.84 459.9C351.78 449.08 356.89 437.85 354.81 426.52Z" />
			<path id="Path 15" class="shp3" d="M298.83 512.94C300.19 511.86 301.42 510.46 302.17 509.78C308.81 503.72 314.34 496.49 318.82 488.72C328.69 471.59 332.91 452.29 335.5 432.89C335.59 432.14 334.3 431.96 334.18 432.71C331.5 448.16 327.78 463.67 321.24 477.98C318.44 484.1 315.11 490 311.14 495.43C308.99 498.37 306.68 501.18 304.17 503.82C303.07 504.99 301.92 506.12 300.75 507.22C299.96 507.95 299.16 508.66 298.35 509.36C298.05 509.54 297.77 509.74 297.53 509.96C288.29 488.81 277.87 468.21 268.3 447.21C262.22 433.84 256.74 420.21 251.45 406.51C260.2 398.26 267.63 387.67 273.66 377.33C279.54 367.23 283.58 356.57 283.45 344.77C283.44 344 282.27 344 282.25 344.77C281.34 368.33 264.85 386.85 250.46 403.93C239.87 376.37 229.91 348.55 217.11 321.91C206.35 299.53 193.39 278.05 176.56 259.69C175.4 258.42 173.55 260.29 174.68 261.57C204.61 295.39 221.9 337.09 237.76 378.81C243.82 394.73 249.77 410.71 256.25 426.46C241.14 422.38 225.75 419.39 210.71 415C203.16 412.8 195.68 410.28 188.49 407.07C184.86 405.45 181.32 403.65 177.88 401.67C174.89 399.95 172.11 397.54 168.78 396.6C168.18 396.43 167.56 397.14 167.94 397.7C171.51 402.99 179.83 406.32 185.42 408.95C192.52 412.29 199.91 414.97 207.41 417.27C223.76 422.29 240.68 426.39 257.43 429.86C257.52 429.88 257.6 429.86 257.69 429.87C258.94 432.87 260.17 435.88 261.48 438.86C268.41 454.72 276 470.27 283.4 485.91C278.31 488.15 273.77 490.72 268.1 491.79C261.46 493.03 254.63 493.03 247.9 492.65C240.62 492.23 233.38 491.2 226.28 489.53C219.04 487.83 212.2 484.88 205.01 483.12C204.12 482.9 203.63 484.09 204.39 484.57C210.65 488.53 218.38 490.57 225.52 492.3C233.15 494.15 240.98 495.32 248.83 495.72C259.51 496.27 275.92 496.32 284.57 488.38C286.98 493.49 289.36 498.61 291.68 503.75C292.73 506.07 293.73 508.39 294.73 510.72C294.66 510.74 294.59 510.75 294.53 510.77C294.11 510.87 293.77 511.23 293.66 511.64C293.33 512.85 293.73 513.95 295.01 514.33C295.41 514.45 295.84 514.41 296.28 514.32C305.56 536.37 312.87 558.77 318.11 582.29C318.36 583.41 320.29 583.19 320.15 582.01C317.27 558.68 308.71 536.07 299.54 514.56C299.3 514.02 299.06 513.49 298.83 512.94Z" />
			<path id="Path 16" fill-rule="evenodd" class="shp2" d="M499.1 330.8C492.19 339.46 479.73 341.31 471.12 348.28C459.72 357.51 457.18 373.61 455.44 388.18C453.06 408.12 450.69 428.06 448.31 448C447.15 457.69 445.24 468.65 437.04 473.95C425.01 481.71 408.11 470.14 405.15 456.13C402.18 442.12 408.39 427.97 414.44 414.99L402.08 435.04C418.87 396.42 406.79 347.29 374.02 320.85C368.67 316.53 362.84 312.75 357.01 308.97C358.48 314.41 359.94 319.85 361.4 325.29C363.41 332.75 366.55 340.66 367.05 348.39C367.11 349.28 365.75 349.65 365.35 348.85C361.64 341.37 360.31 332.2 358.15 324.15L353.45 306.65C343.76 300.29 334.41 293.65 327.8 284.26C324.3 279.29 321.65 273.44 321.89 267.37C322.14 261.31 325.87 255.12 331.69 253.41C334.3 252.65 336.85 252.81 339.29 253.59C338.96 252.26 338.61 250.94 338.28 249.61C334.22 233.01 331.17 215.74 329.83 198.38C329.83 198.38 329.83 198.39 329.83 198.39C327.21 198.08 325.95 196.22 324.11 194.37C321.29 191.53 318.62 188.54 316.12 185.42C311.43 179.55 307.18 173.2 303.87 166.46C303.2 165.1 305.15 163.92 305.92 165.26C309.64 171.96 313.55 178.4 318.32 184.43C320.63 187.34 323.08 190.15 325.65 192.83C327.42 194.66 329.28 195.77 329.82 198.25C328.58 182.07 328.82 165.82 331.17 149.96C331.29 149.18 332.55 149.38 332.52 150.14C331.94 167.01 331.35 183.69 332.81 200.55C334.12 215.57 336.64 230.37 340.08 245.02C344.1 240.89 347.79 236.66 350.55 231.49C352.14 228.51 353.44 225.38 354.42 222.15C354.83 220.78 355.12 219.41 355.5 218.07C351.83 213.37 349.12 208.15 348.49 202.25C347.27 190.86 358.68 178.24 369.2 182.76C378.74 186.85 383.54 202.29 393.62 199.82C401.45 197.89 402.08 187.11 400.96 179.12C398.75 163.33 396.54 147.55 394.33 131.76C393.26 124.1 392.19 116.27 393.71 108.69C395.22 101.11 399.85 93.7 407.08 90.96C416.72 87.31 427.93 93.3 433.32 102.08C438.71 110.87 439.55 121.65 439.54 131.95C439.51 156.86 435.34 181.76 427.26 205.33C424.04 214.72 421.05 227.14 429.14 232.9C436.58 238.19 446.79 232.76 453.74 226.84C460.68 220.92 468.99 213.91 477.76 216.41C487.4 219.16 490.31 232.44 486 241.49C481.69 250.53 472.8 256.33 464.57 262.04C456.34 267.76 447.87 274.56 445.24 284.23C442.62 293.9 449.42 306.41 459.41 305.6C465.11 305.13 469.64 300.75 474.93 298.57C483.38 295.09 494.01 298.02 499.49 305.33C504.98 312.64 504.81 323.66 499.1 330.8ZM389.17 255.81C385.68 244.9 376.1 237.3 367.36 229.9C363.99 227.05 360.6 223.98 357.64 220.63C356.67 225.15 354.3 229.85 352.29 233.44C349.32 238.73 345.44 243.7 340.68 247.5C341.01 248.89 341.35 250.28 341.7 251.67C341.98 252.79 342.28 253.9 342.56 255.01C346.95 257.45 350.86 261.65 353.9 265.74C359.29 273 365.64 281.48 374.68 281.48C386.13 281.49 392.65 266.72 389.17 255.81Z" />
			<path id="Path 17" class="shp3" d="M485.75 313.97C483.95 319.84 478.35 323.11 473.63 326.46C468.81 329.89 463.95 333.28 458.88 336.33C449.59 341.93 439.76 345.91 429.52 349.25C428.24 342.47 426.71 335.75 424.97 329.06C424.97 328.78 424.91 328.52 424.77 328.29C423.35 322.85 421.81 317.42 420.2 311.99C416.37 299.03 412.77 286.13 410.55 272.98C421.79 272.39 434.2 265.79 443.44 259.99C453.77 253.5 463.08 245.24 470.16 235.26C470.61 234.62 469.58 233.82 469.07 234.42C461.23 243.52 452.51 251.64 442.24 257.94C436.97 261.16 431.41 263.91 425.63 266.12C420.59 268.04 415.23 269.06 410.21 270.95C408.89 262.59 408.15 254.12 408.29 245.47C408.34 242.57 408.46 239.69 408.63 236.81C408.86 236.41 408.91 235.93 408.72 235.5C409.94 216.7 413.43 198.09 416.08 179.45C419.42 155.92 421.16 132.34 415.36 109.06C415.12 108.1 413.66 108.5 413.88 109.46C423.19 150.85 409.13 192.33 406.04 233.62C398.4 229.23 391.15 224.3 384.48 218.5C377.52 212.46 371.63 205.54 365.48 198.71C364.8 197.96 363.54 198.94 364.08 199.79C373.88 215.38 389.8 228.09 405.82 236.93C405.81 237.12 405.8 237.32 405.79 237.51C404.55 259.08 407.94 279.63 413.79 300.35C416.29 309.17 418.91 317.94 421.32 326.74C388.14 315.91 366.58 287.71 337.17 270.4C335.75 269.57 334.59 271.66 335.9 272.58C350.93 283.16 364.67 295.19 379.13 306.5C392.11 316.64 406.23 325.99 422.29 330.36C424.02 336.91 425.59 343.49 426.86 350.14C425.52 350.72 425.99 352.71 427.35 352.72C428.16 357.24 428.81 361.8 429.26 366.41C431.82 392.4 428.89 417.69 422.87 442.99C422.49 444.59 424.86 445.25 425.34 443.67C431.85 422.5 433.94 399.54 432.93 377.47C432.54 368.87 431.51 360.42 430.04 352.06C441.83 348.75 453.12 343.2 463.29 336.47C468.67 332.91 473.93 329.08 478.98 325.07C482.73 322.09 485.77 319.04 486.94 314.3C487.13 313.53 485.99 313.21 485.75 313.97Z" />
			<path id="Path 18" class="shp2" d="M858.43 424.31C843.3 427.4 829.46 434.02 816.1 441.6C813.74 442.94 811.4 444.31 809.06 445.67C810.2 441.98 811.75 438.45 813.91 435.23C816.55 431.3 820.23 428.77 823.21 425.24C823.79 424.55 823.07 423.7 822.28 424.04C814.02 427.53 808.52 438.81 806.64 447.06C797.16 452.6 787.78 458.31 778.41 464.03C778.31 463.97 778.2 463.91 778.1 463.84C777.53 463.52 776.67 464.22 777.12 464.81C776.59 465.14 776.05 465.47 775.52 465.79C769.33 469.57 763.18 473.41 757.06 477.31C760.12 472.7 762.93 467.89 765.39 462.8C773.15 446.8 775.78 425.44 763.14 412.93C755.63 405.51 744.17 403.09 733.74 404.72C723.31 406.34 713.77 411.57 705.18 417.7C673.05 440.64 652.57 476 639.51 512.56C632.03 533.5 610.75 570 613.33 592.64C614.47 602.56 620.15 610.29 630.67 612.23C647.43 615.32 650.4 601.3 656.83 588.72C679.27 544.89 725.46 520.94 753.6 482.28C761.85 476.91 770.19 471.68 778.57 466.51C785.83 474.28 799.27 478.93 809.36 478.88C810.54 478.88 810.89 476.96 809.65 476.75C803.87 475.78 798.37 474.91 792.92 472.63C788.36 470.72 784.58 467.88 780.51 465.31C790.13 459.4 799.8 453.58 809.46 447.77C824.98 438.44 840.96 429.55 858.71 425.31C859.37 425.16 859.09 424.17 858.43 424.31Z" />
			<path id="Path 19" class="shp3" d="M708.6 471C708.63 470.84 708.64 470.68 708.66 470.52C710.85 467.74 713.05 464.98 715.31 462.27C725.77 449.71 737.03 435.79 750.82 426.82C751.41 426.44 750.9 425.64 750.28 425.9C742.73 429.14 736.88 435.52 731.23 441.29C725.54 447.1 720.11 453.15 714.86 459.36C712.9 461.68 710.99 464.05 709.08 466.41C709.39 461.12 708.99 455.65 709.47 450.4C710.19 442.48 711.79 434.74 713.39 426.96C713.59 425.98 712.21 425.59 711.88 426.54C709.47 433.68 708.08 441.09 707.2 448.56C706.43 455.08 705.3 462.9 706.56 469.52C700.06 477.74 693.87 486.2 687.93 494.83C687.77 494.83 687.6 494.83 687.43 494.82C686.29 494.76 686.02 496.09 686.6 496.77C686.19 497.37 685.77 497.97 685.36 498.58C678.6 508.6 672.04 518.82 665.69 529.2C665.52 527.79 665.46 526.37 665.31 525.11C664.9 521.65 664.62 518.17 664.45 514.68C664.14 508.02 664.46 501.39 664.67 494.73C664.7 493.8 663.15 493.55 663.01 494.51C661.98 501.8 661.91 509.23 662.26 516.58C662.45 520.38 662.77 524.17 663.25 527.95C663.43 529.34 663.51 530.85 663.81 532.27C653.13 549.86 643.05 567.86 633.66 586.02C633 587.3 634.86 588.41 635.6 587.16C645.71 569.99 655.24 552.56 665.25 535.38C665.53 535.56 665.87 535.63 666.23 535.56C666.45 535.52 666.67 535.47 666.89 535.43C667.35 535.34 667.66 534.66 667.36 534.27C667.06 533.89 666.83 533.46 666.63 533.01C672.64 522.76 678.84 512.6 685.45 502.67C686.67 500.84 687.91 499.03 689.15 497.21C697.97 497.45 706.77 496.15 715.01 492.9C723.51 489.55 730.96 484.21 739.16 480.26C739.86 479.92 739.25 478.91 738.55 479.22C730.41 482.86 722.81 487.75 714.45 490.86C706.79 493.71 698.81 495.01 690.7 494.92C696.16 487 701.83 479.22 707.75 471.65C708.14 471.66 708.53 471.45 708.6 471Z" />
		</g>
		<path id="Path 21" class="shp5" d="M501.49 305.33C496.01 298.02 485.38 295.09 476.93 298.57C471.64 300.75 467.11 305.13 461.41 305.6C451.42 306.41 444.62 293.9 447.24 284.23C449.87 274.55 458.34 267.76 466.57 262.04C474.8 256.33 483.69 250.53 488 241.49C492.31 232.44 489.4 219.16 479.76 216.41C470.99 213.91 462.68 220.92 455.74 226.84C448.79 232.76 438.58 238.19 431.14 232.9C423.05 227.14 426.04 214.72 429.26 205.33C437.34 181.76 441.51 156.86 441.54 131.95C441.55 121.65 440.71 110.87 435.32 102.08C429.93 93.3 418.72 87.31 409.08 90.96C401.85 93.7 397.23 101.11 395.71 108.69C394.19 116.27 395.26 124.1 396.33 131.76C398.54 147.54 400.75 163.33 402.96 179.12C404.08 187.11 403.45 197.89 395.62 199.82C394.78 200.02 393.98 200.09 393.21 200.07C391.68 194.11 390.12 188.16 388.48 182.23C384.76 168.73 380.63 155.04 372.6 143.56C364.58 132.08 351.91 123 337.9 122.73C324.22 122.47 311.38 130.75 303.34 141.82C295.3 152.9 291.45 166.47 289.16 179.96C279.06 239.3 296.42 299.43 319.56 355.44C319.18 356.07 318.82 356.72 318.48 357.39C313.16 352.34 307.61 347.54 301.84 343.05C300.77 337.19 298.21 331.77 293.69 327.95C288.64 323.67 280.92 322.92 274.95 325.3C271.92 323.63 268.85 322.04 265.72 320.54C258.42 317.03 249.85 314.15 241.99 314.51C237.92 285.56 219.82 258.74 194.19 244.58C185.49 239.77 174.64 236.4 165.82 240.98C152.98 247.65 152.77 266 156.71 279.91C162.49 300.29 173.32 319.21 187.97 334.5C190.72 337.38 193.62 340.14 196.43 342.97C186.46 342.23 178.72 333.44 171.28 326.37C159.06 314.75 139.83 289.95 127.69 301.67C113.39 315.48 155.69 329.81 164.53 347.62C166.95 352.48 168.18 357.85 170.44 362.79C176.49 376.03 188.68 384.33 201.85 391.32C198.5 392.87 194.77 393.32 191.24 392.07C181.92 388.78 177 375.86 167.12 376.02C156.63 376.18 153.22 390.9 156.7 400.79C162.05 416.01 176.34 427.7 192.31 429.93C200.26 431.05 208.59 430.02 216.14 432.74C223.69 435.46 230.09 444.24 226.36 451.34C222.65 458.41 212.75 458.32 205.29 461.17C189.73 467.12 185.79 491.45 198.68 502.01C215.13 515.48 241.22 502.83 260.5 511.79C273.19 517.69 280.04 531.75 283.14 545.4C286.25 559.04 286.63 573.33 291.26 586.54C295.89 599.75 306.36 612.35 320.29 613.67C353.76 616.84 347.47 578.17 343.53 557.66C339.82 538.38 338.69 518.96 340.71 499.8C355.97 519.55 371.31 544.95 389.81 561.83C392.05 567.46 396.06 571.52 404.68 572.28C406.11 572.4 407.47 572.4 408.78 572.29C420.11 573.85 431.02 568.01 429.18 553.88C429.05 552.89 428.87 551.91 428.65 550.93C432.95 529.04 424.49 494.84 422.84 474.8C428.18 477.05 434.03 477.18 439.04 473.95C447.24 468.65 449.16 457.69 450.31 448C452.69 428.06 455.06 408.12 457.44 388.18C459.18 373.61 461.72 357.51 473.12 348.28C481.73 341.31 494.19 339.46 501.1 330.8C506.81 323.66 506.98 312.64 501.49 305.33Z" />
		<path id="Path 22" fill-rule="evenodd" class="shp6" d="M827.54 526.4C824.28 530.74 822.09 535.79 818.97 540.24C806.75 557.63 783.6 562.3 763.2 568.25C760.31 569.09 757.31 570.05 755.16 572.17C753.01 574.29 752.03 577.9 753.77 580.37C754.97 582.05 757.13 582.85 758.31 584.54C759.98 586.94 759.06 590.43 757.02 592.53C754.98 594.62 752.11 595.65 749.34 596.58C717.97 607.18 685.49 614.48 652.61 618.33C645.52 621.19 638.43 624.05 631.34 626.91C630.44 621.77 632.03 616.95 634.81 612.53C634.12 612.46 633.41 612.37 632.67 612.23C631.26 611.97 629.95 611.6 628.72 611.14C617.39 609.62 608.42 601.08 613.97 587.96C614.36 587.04 614.79 586.14 615.27 585.25C616.46 569.67 625.29 549.95 632.87 533.04C618.9 557.06 605.95 588.54 586.95 608.2C575.02 620.54 551.95 620.25 551.8 600.14C551.67 583.46 564.75 565.01 569.3 549.21C571.58 541.3 573.61 533.39 575.59 525.49C575.1 522.08 574.74 518.67 574.45 515.36C573.22 501.35 572 487.34 570.77 473.33C567.82 487.08 564.87 500.84 561.92 514.59C555.97 542.3 554.18 577.9 542.12 603.55C534.82 619.07 512.89 626.25 506.25 607.27C500.74 591.52 507.16 569.84 506.37 553.41C504.78 520.46 499.45 488.65 501.81 455.44C505.1 408.94 518.91 362.25 547.41 325.35C555.19 315.27 566.45 305.11 578.96 307.54C586.22 308.96 591.86 314.54 595.09 321.33C595.15 321.22 595.21 321.13 595.26 321.02C601.17 309.22 596.48 295.18 592.48 282.61C588.49 270.04 585.73 254.87 594.29 244.84C599.07 239.24 606.43 236.57 612 231.75C625.79 219.8 625.26 198.82 626.51 180.61C628.44 152.43 624.1 100.05 652.35 100.78C685.64 101.64 649.65 167.21 658.89 199.2C661.41 207.94 665.97 215.96 668.77 224.61C679.19 256.78 664.31 290.58 652 322.42C655.53 325.38 656.76 330.57 660.29 333.62C666.1 338.65 676.02 335.19 679.75 328.47C683.47 321.75 682.45 313.37 680.02 306.08C677.59 298.79 673.86 291.91 672.32 284.38C670.78 276.85 671.95 268.09 677.82 263.12C683.68 258.16 694.73 259.94 696.66 267.38C697.43 270.32 696.78 273.71 698.49 276.23C701.28 280.33 708.25 278.52 710.86 274.31C713.47 270.09 713.19 264.79 713.39 259.84C714.31 237.34 727.65 215.75 747.35 204.86C753.43 201.5 761.01 199.15 767.18 202.35C770.76 204.21 772.92 207.38 774.06 211.12C775.33 209.91 776.63 208.74 777.99 207.62C788.79 198.69 803.42 193.32 816.99 196.8C830.25 200.21 840.42 211.61 845.2 224.42C849.99 237.24 850.08 251.35 848.69 264.96C842.59 324.84 809.83 378.14 772.59 425.94C772.79 426.66 772.97 427.38 773.12 428.12C792.17 417.98 812.51 410.5 833.77 406.7C846.32 404.45 861.48 404.48 869.11 414.69C875.16 422.77 873.77 434.59 868.49 443.2C863.21 451.81 854.8 457.93 846.6 463.83C828.95 476.51 811.31 489.2 793.66 501.88C788.88 505.32 784.09 508.76 779.31 512.2C780.36 511.99 781.45 511.9 782.58 511.97C786.97 512.24 790.88 514.79 795.18 515.72C805.83 518.01 815.65 510.22 824.79 504.28C838.92 495.08 862.35 474.2 872.15 487.94C883.69 504.13 839.49 510.5 827.54 526.4ZM763.91 524.67C764.63 523.64 765.41 522.61 766.22 521.6C757.76 527.69 749.3 533.77 740.84 539.85C742.76 540.08 744.67 540.14 746.58 539.79C754.33 538.37 759.34 531.09 763.91 524.67Z" />
		<path id="Path 23" class="shp7" d="M443.4 383.15C443.4 383.15 454 408.33 451.59 432.41C449.18 456.48 445.69 462.26 414.21 474.78C382.73 487.3 365.88 492.6 365.88 492.6C365.88 492.6 438.1 551.35 493 551.83C547.9 551.35 620.12 492.6 620.12 492.6C620.12 492.6 603.27 487.3 571.79 474.78C540.31 462.26 536.82 456.48 534.41 432.41C532 408.33 542.6 383.15 542.6 383.15C542.6 383.15 494.93 378.95 493 378.95C491.08 378.95 443.4 383.15 443.4 383.15Z" />
		<path id="Path 24" class="shp8" d="M414.27 298.06C414.27 299.66 414.33 301.25 414.43 302.83C414.43 302.85 414.42 302.86 414.42 302.88C410.96 348.63 450.6 424.7 492.01 424.7L493.01 424.7C534.41 424.7 575.04 348.63 571.58 302.88C571.58 302.86 571.58 302.84 571.58 302.82C571.67 301.24 571.73 299.66 571.73 298.06C571.73 254.57 568.5 207.05 495.35 205.61C494.79 205.6 494.24 205.59 493.69 205.59C441.19 205.59 414.27 255.03 414.27 298.06Z" />
		<path id="Path 25" class="shp9" d="M510.75 177.13C502.1 182.32 490.88 181.28 479.42 180.23C468.56 179.24 457.48 178.25 448.15 182.57C422.15 194.6 428.48 213.79 404.88 239.79C382.96 263.95 409.7 338.51 414.21 353.43C418.73 368.36 429.75 368.56 429.75 368.56C429.75 368.56 414.86 324.55 428.72 272.76C445.28 210.84 472.18 229.72 497.66 231.24C503.81 231.61 509.9 231.21 515.75 230.81C540.58 229.12 561.07 227.43 563.43 284.33C564.7 315.08 559.58 361.7 559.58 361.7C559.58 361.7 571.01 344.77 580.16 322.01C589.31 299.26 582.56 258.03 571.79 245.09C561.38 232.57 571.36 209.29 566.4 197.32C561.22 184.82 545.35 172.22 528.28 172.22C522.45 172.22 516.48 173.69 510.75 177.13Z" />
		<path id="Path 26" class="shp10" d="M493 483.93C446.29 483.93 436.59 464.09 436.59 464.09C436.59 464.09 369.73 486.34 351.43 494.52C333.13 502.71 316.28 549.42 315.8 574.46C315.61 583.93 330.52 594.85 353.06 604.76C399.96 613.02 448.23 617.33 497.5 617.33C541.6 617.33 584.88 613.88 627.11 607.24C652.87 596.69 670.4 584.72 670.2 574.46C669.72 549.42 652.87 502.71 634.57 494.52C616.27 486.34 549.41 464.09 549.41 464.09C549.41 464.09 539.71 483.93 493 483.93Z" />
		<path id="Path 27" fill-rule="evenodd" class="shp11" d="M532.17 262.67C533.27 262.67 534.36 262.72 535.45 262.83C543.2 263.61 550.93 267.78 554.36 274.77C555.02 276.11 555.45 277.89 554.44 278.99C553.65 279.85 552.27 279.89 551.19 279.45C550.11 279.02 549.24 278.2 548.33 277.48C544.38 274.35 539.2 272.85 534.2 273.29C526.6 275.3 519.01 277.31 511.41 279.33C510.3 279.62 509.13 279.92 508 279.68C505.06 279.04 504.08 274.93 505.55 272.3C507.01 269.66 509.94 268.24 512.73 267.11C518.93 264.6 525.53 262.67 532.17 262.67ZM531.33 273.76L532.47 273.52C532.09 273.58 531.71 273.66 531.33 273.76Z" />
		<path id="Path 28" fill-rule="evenodd" class="shp12" d="M459.55 262.67C466.2 262.67 472.8 264.6 479 267.11C481.79 268.24 484.72 269.66 486.18 272.3C487.64 274.93 486.67 279.04 483.73 279.68C482.6 279.92 481.43 279.62 480.31 279.33C472.72 277.31 465.12 275.3 457.53 273.29C452.52 272.85 447.35 274.35 443.4 277.48C442.49 278.2 441.62 279.02 440.54 279.45C439.46 279.89 438.08 279.85 437.29 278.99C436.27 277.89 436.71 276.11 437.37 274.77C440.79 267.78 448.53 263.61 456.27 262.83C457.37 262.72 458.46 262.67 459.55 262.67ZM460.39 273.76C460.02 273.66 459.64 273.58 459.26 273.52L460.39 273.76Z" />
		<g id="Mask" clip-path="url(#cp3)">
			<path id="Path 30" class="shp13" d="M527.9 272.88C521.99 275.88 511.42 287.95 495.35 287.95C479.28 287.95 468.64 276.38 462.7 272.18C457.29 268.36 449.68 322.45 459.18 320.18C468.68 317.92 484.15 311.24 495.35 311.24C506.54 311.24 520.99 317.92 530.49 320.18C539.99 322.45 533.81 269.89 527.9 272.88Z" />
			<path id="Path 31" class="shp14" d="M475.67 295.94C475.67 310.34 463.99 322.01 449.59 322.01C435.19 322.01 423.52 310.34 423.52 295.94C423.52 281.54 435.19 269.86 449.59 269.86C463.99 269.86 475.67 281.54 475.67 295.94Z" />
		</g>
		<path id="Path 33" class="shp15" d="M484.92 348.6C481.67 349.86 491.35 354.56 493.95 355.46C496.54 356.36 501.26 353.55 503.52 352.39C509.11 349.5 505.68 348.42 503.52 348.59C501.35 348.76 496.83 350.94 494.85 350.76C493.11 350.61 488.35 348.46 485.83 348.46C485.48 348.46 485.17 348.5 484.92 348.6Z" />
		<path id="Path 34" class="shp16" d="M493.69 373.29C491.96 373.38 490.12 373.37 488.25 373.36C484.23 373.33 480.06 373.3 476.48 374.31C483.37 376.48 491.38 378 498.67 377.92C502 377.89 505.37 377.51 508.54 376.47C510.94 375.69 514.93 371.78 516.92 371.6C509.19 372.32 501.44 372.88 493.69 373.29Z" />
		<g id="Mask" clip-path="url(#cp4)">
			<path id="Path 36" class="shp14" d="M465.73 275.46C464.54 274.87 405.32 205.61 405.32 205.61L372.47 347.15L459.18 320.18L465.73 275.46Z" />
		</g>
		<path id="Path 38" fill-rule="evenodd" class="shp17" d="M273.81 247.46C273.81 247.46 270.79 262.79 275.56 283.1C269.14 268.8 266.37 255.33 273.81 247.46ZM452.36 274.13C458.01 274.13 462.59 285.97 457.05 302.33C448.27 328.25 427.02 342.48 414.19 359.15C401.36 375.82 387.55 387.14 392.84 491.63C395.7 548.01 404.46 592.72 398.89 611.51C370 608.08 341.54 603.15 313.64 596.82C311.39 585.97 344.79 432.81 336.99 401.59C329.04 369.81 325.77 368.36 304.23 331.77C329.35 351.37 365.99 348.77 386.34 343.32C408.17 337.48 437.3 307.62 443.8 285.23C446.06 277.47 449.36 274.13 452.36 274.13ZM275.56 283.1C283.7 301.23 297.7 320.69 304.22 331.76C304.22 331.76 304.23 331.77 304.23 331.77C300.04 328.5 296.17 324.62 292.76 320.02C283.33 307.36 278.23 294.45 275.56 283.1Z" />
		<path id="Path 39" class="shp18" d="M263.43 266.76C263.43 313.16 301.18 350.91 347.58 350.91C393.98 350.91 431.73 313.16 431.73 266.76C431.73 220.36 393.98 182.61 347.58 182.61C301.18 182.61 263.43 220.36 263.43 266.76Z" />
		<g id="Mask" clip-path="url(#cp5)">
			<path id="Path 41" class="shp14" d="M402.83 266.76C402.83 297.27 378.09 322.01 347.58 322.01C317.06 322.01 292.32 297.27 292.32 266.76C292.32 236.24 317.06 211.5 347.58 211.5C378.09 211.5 402.83 236.24 402.83 266.76ZM514.01 295.94C514.01 310.34 525.68 322.01 540.08 322.01C554.48 322.01 566.15 310.34 566.15 295.94C566.15 281.54 554.48 269.86 540.08 269.86C525.68 269.86 514.01 281.54 514.01 295.94ZM522.25 276.92C523.44 276.33 584.35 205.61 584.35 205.61L617.21 347.15L530.49 320.18L522.25 276.92Z" />
		</g>
		<path id="Path 43" fill-rule="evenodd" class="shp19" d="M715.86 247.46C723.3 255.33 720.53 268.8 714.11 283.1C718.89 262.79 715.86 247.46 715.86 247.46ZM537.31 274.13C540.31 274.13 543.61 277.47 545.87 285.23C552.37 307.62 581.5 337.48 603.33 343.32C623.68 348.77 660.33 351.38 685.45 331.77C663.9 368.36 660.63 369.81 652.69 401.59C644.74 433.37 679.49 591.49 675.88 597.27C675.7 597.56 675.4 597.89 674.99 598.24C647.46 604.26 619.44 608.91 590.96 612.11C585.02 593.68 593.94 548.61 596.83 491.63C602.13 387.14 588.31 375.82 575.48 359.15C562.65 342.48 541.41 328.25 532.63 302.33C527.09 285.97 531.66 274.13 537.31 274.13ZM714.11 283.1C711.44 294.45 706.34 307.36 696.92 320.02C693.5 324.61 689.63 328.5 685.45 331.77L685.45 331.76C691.97 320.69 705.97 301.23 714.11 283.1Z" />
		<path id="Path 44" class="shp20" d="M557.95 266.76C557.95 313.16 595.69 350.91 642.09 350.91C688.49 350.91 726.24 313.16 726.24 266.76C726.24 220.36 688.49 182.61 642.09 182.61C595.69 182.61 557.95 220.36 557.95 266.76Z" />
		<g id="Mask" clip-path="url(#cp6)">
			<path id="Path 46" class="shp14" d="M586.84 266.76C586.84 297.27 611.58 322.01 642.09 322.01C672.61 322.01 697.35 297.27 697.35 266.76C697.35 236.24 672.61 211.5 642.09 211.5C611.58 211.5 586.84 236.24 586.84 266.76Z" />
		</g>
		<path id="Path 48" class="shp21" d="M497.14 391.66C498.89 391.75 500.76 391.49 502.33 390.68C503.19 390.24 504.89 388.01 505.51 387.9C499.96 388.95 495.24 387.47 489.9 386.97C489.03 390.38 494.64 391.54 497.14 391.66Z" />
		<g id="Mask" clip-path="url(#cp7)">
			<path id="Path 50" class="shp22" d="M693.08 266.74C693.08 269.5 692.86 272.22 692.44 274.86C691.52 280.67 689.6 286.18 686.88 291.16C678.2 307.01 661.41 317.74 642.08 317.74C613.94 317.74 591.11 294.91 591.11 266.74C591.11 245.42 604.24 227.15 622.84 219.55C628.04 217.41 633.71 216.11 639.63 215.83C640.44 215.8 641.25 215.77 642.08 215.77C670.25 215.77 693.08 238.6 693.08 266.74Z" />
			<path id="Path 51" class="shp23" d="M692.44 274.86C691.52 280.67 689.6 286.18 686.88 291.16L622.84 219.55C628.04 217.41 633.71 216.11 639.63 215.83L692.44 274.86Z" />
			<path id="Path 52" class="shp22" d="M398.56 266.74C398.56 269.5 398.34 272.22 397.92 274.86C397 280.67 395.09 286.18 392.36 291.16C383.69 307.01 366.89 317.74 347.56 317.74C319.42 317.74 296.59 294.91 296.59 266.74C296.59 245.42 309.72 227.15 328.32 219.55C333.52 217.41 339.19 216.11 345.12 215.83C345.92 215.8 346.73 215.77 347.56 215.77C375.73 215.77 398.56 238.6 398.56 266.74Z" />
			<path id="Path 53" class="shp23" d="M397.92 274.86C397.01 280.67 395.09 286.18 392.36 291.16L328.32 219.55C333.52 217.41 339.2 216.11 345.12 215.83L397.92 274.86Z" />
			<path id="Path 54" class="shp3" d="M640.29 529.89C673.96 497.64 715.54 472.32 761.44 464.12C773.98 461.87 789.14 461.9 796.77 472.11C802.83 480.19 801.43 492.01 796.16 500.62C790.88 509.23 782.46 515.35 774.26 521.25C756.61 533.93 738.97 546.62 721.32 559.3L645.11 614.09C622.1 630.63 596.87 655.8 570.71 666.71C554.87 673.31 533.81 663.9 541.63 645.38C548.13 630.01 567.44 618.25 577.89 605.55C598.83 580.07 616.25 552.91 640.29 529.89Z" />
			<path id="Path 55" class="shp2" d="M786.84 479.66C769.15 478.14 752.84 486.87 739.15 497.26C735.68 499.9 732.31 502.66 728.99 505.49C728.97 501.8 729.3 498.15 730.22 494.52C730.5 493.4 734.75 480.77 736.45 481.63C736.77 481.8 737.28 481.52 737.12 481.11C737.06 480.95 737 480.8 736.94 480.64C736.84 480.36 736.62 480.16 736.3 480.15C732.76 480.07 731.02 486.72 730.03 489.38C727.97 494.97 727.15 500.84 727.49 506.76C716.54 516.25 706.3 526.65 696.26 537.02C680.91 552.87 666.04 569.3 650.47 584.97C650.4 581.1 649.58 577.21 649.35 573.33C649.12 569.34 649.1 565.34 649.29 561.35C649.73 552.44 651.8 544.02 653.46 535.31C653.68 534.15 652.16 533.77 651.72 534.83C648.46 542.81 647.25 551.85 646.72 560.42C646.23 568.55 645.67 578.7 648.62 586.4C648.66 586.5 648.71 586.58 648.78 586.66C636.92 598.51 624.64 609.91 611.39 620.25C610.12 621.24 608.83 622.19 607.55 623.16C614.42 612.95 621.26 600.02 619.08 587.82C618.93 586.99 617.76 587.27 617.7 588.01C617.05 595.49 615.84 602.28 612.63 609.14C609.94 614.91 606.34 620.13 603.15 625.62C602.97 625.94 602.95 626.24 603.04 626.5C596.79 631.01 590.36 635.27 583.71 639.17C574.43 644.61 564.63 648.67 555.01 653.41C554.01 653.9 554.71 655.48 555.75 655.18C572.86 650.31 589.15 639.72 603.48 629.46C618.33 618.81 632.08 606.7 645.17 593.96C669 570.74 690.75 545.46 714.58 522.25C722.37 526.23 732.81 526.82 741.35 526.34C747.67 525.99 757.34 525.69 760.98 519.59C761.46 518.77 760.4 518.1 759.74 518.63C753.65 523.56 745.25 524.05 737.69 524.09C730.1 524.14 723.11 522.21 715.75 521.09C720.27 516.72 724.84 512.4 729.54 508.21C745.65 493.85 764.31 480.4 786.84 480.78C787.57 480.79 787.55 479.72 786.84 479.66ZM693.2 501.44C689.95 509.3 687.51 517.1 686.11 525.51C685.01 532.08 682.93 540.86 684.97 547.27C685.15 547.84 685.96 547.85 686.13 547.27C687.07 544.21 686.71 540.99 686.89 537.81C687.14 533.26 687.64 528.72 688.38 524.22C689.64 516.62 691.42 508.93 693.76 501.6C693.88 501.24 693.34 501.11 693.2 501.44Z" />
			<path id="Path 56" class="shp4" d="M367.48 539.47C339.6 512.1 302.04 493.87 256.35 494.93C243.86 495.22 228.18 498.52 218.09 511.11C210.09 521.09 208.99 533.48 212.59 541.59C216.2 549.69 223.59 554.46 230.8 559.02C246.32 568.84 261.84 578.66 277.35 588.47C299.7 602.61 322.04 616.75 344.38 630.88C364.62 643.69 385.29 665.28 410 671.36C424.96 675.04 448.76 660.41 444.66 642.21C441.25 627.11 423.8 618.65 415.73 607.26C399.55 584.41 387.38 559.01 367.48 539.47Z" />
			<path id="Path 57" class="shp2" d="M391.44 636.39C383.19 627.41 374.5 618.71 365.49 610.3C368.89 602.26 370.54 593.3 369.68 584.61C369.63 584.06 368.86 584.05 368.82 584.61C368.33 593.23 367.03 601.19 364.38 609.27C355.42 600.96 346.16 592.92 336.72 585.19C341.87 566.73 344.44 543.51 330.7 528.01C329.83 527.03 328.52 528.44 329.28 529.43C342.01 545.85 338.77 565.26 335.62 584.29C329.22 579.06 322.74 573.97 316.22 569.02C309.56 563.97 302.77 559.07 295.85 554.38C296.6 548.65 296.66 542.57 296.21 536.86C295.86 532.43 294.94 527.83 292.01 524.36C292.01 524.36 292.01 524.36 292.01 524.36C292.01 524.35 292 524.35 292 524.35C291.96 524.3 291.92 524.24 291.87 524.18C291.87 524.19 291.86 524.19 291.86 524.2C291.2 523.56 290.04 524.31 290.52 525.23C295.26 534.26 293.94 543.53 294.1 553.24C287.73 548.97 281.26 544.86 274.63 541C272.72 539.88 270.8 538.78 268.87 537.7C269.64 532.01 268.96 526.09 267.24 520.62C265.7 515.73 263.3 509.6 259.08 506.47C258.57 506.09 257.71 506.73 257.96 507.33C259.97 512.16 263.31 516.12 264.94 521.26C266.55 526.31 266.89 531.37 266.83 536.59C261.86 533.86 256.84 531.23 251.74 528.76C244.09 525.06 235.98 521.19 227.53 519.85C226.31 519.65 225.79 521.34 227.01 521.73C245.99 527.67 264.02 536.71 281.11 547.26C277.73 551.63 274.35 555.51 269.42 558.27C265.11 560.68 260.03 560.71 255.88 562.93C255.36 563.21 255.52 563.96 256.04 564.13C260.72 565.66 267.28 562.35 271.23 559.94C275.86 557.12 280.21 553.12 282.63 548.2C286.53 550.64 290.39 553.15 294.2 555.73C294.29 556.17 294.75 556.43 295.15 556.37C301.99 561.03 308.67 565.86 315.19 570.78C318.26 573.1 321.28 575.47 324.27 577.86C320.24 582.75 316.73 586.65 310.61 589.08C305.81 591 300.59 592 295.51 592.93C295.24 592.78 294.89 592.87 294.67 593.05C294.57 593.13 294.47 593.21 294.37 593.29C294.14 593.47 294.09 593.83 294.15 594.09C294.18 594.21 294.21 594.32 294.23 594.44C294.32 594.8 294.66 595.17 295.04 595.24C297.55 595.72 300.56 594.57 303.02 594C306.73 593.15 310.39 592.07 313.84 590.43C318.56 588.17 324.03 584.27 325.74 579.04C338.8 589.59 351.17 600.81 363.47 612.16C363.52 612.4 363.74 612.58 363.99 612.63C372.85 620.81 381.68 629.05 390.69 637.14C391.19 637.6 391.9 636.89 391.44 636.39Z" />
			<path id="Path 58" class="shp3" d="M509.93 588.44C516.31 567.61 529.86 548.68 552.54 537.05C558.74 533.87 567.3 531.31 575.59 534.8C582.17 537.56 586.01 543.34 586.39 548.27C586.78 553.2 584.43 557.5 582.11 561.66C577.12 570.6 572.13 579.54 567.13 588.48C559.94 601.35 552.76 614.22 545.57 627.09C539.06 638.75 534.67 654.83 524.18 664.38C517.83 670.17 502.27 669.33 499.44 659.32C497.09 651.01 503.39 642.22 504.31 634.5C506.17 619 505.37 603.31 509.93 588.44ZM451.61 555.49C442.63 526.18 423.55 499.54 391.64 483.17C382.92 478.69 370.87 475.09 359.19 480C349.94 483.89 344.54 492.02 343.99 498.96C343.44 505.9 346.76 511.95 350.02 517.8C357.05 530.38 364.07 542.96 371.1 555.54C381.22 573.66 391.33 591.78 401.45 609.89C410.61 626.3 416.78 648.93 431.55 662.37C440.49 670.51 462.39 669.33 466.37 655.24C469.67 643.55 460.81 631.19 459.51 620.31C456.9 598.5 458.02 576.42 451.61 555.49Z" />
			<path id="Path 59" class="shp2" d="M438.74 633.53C432.87 620.93 426.15 608.74 419.67 596.44C413.3 584.37 407.92 572.09 402.57 559.54C397.27 547.1 390.65 534.71 382.93 523.12C390.64 519.55 396.62 504.86 394.38 496.94C394.21 496.35 393.34 496.35 393.17 496.94C391.81 501.84 391.87 506.6 389.67 511.34C387.78 515.42 384.43 518.36 382.3 522.17C376.44 513.48 369.97 505.25 362.88 497.89C362.49 497.48 361.73 498.03 362.08 498.5C369.46 508.44 377.25 517.98 383.93 528.43C390.92 539.38 396.89 550.87 401.87 562.86C403.96 567.89 406.16 572.89 408.41 577.87C405.81 577.71 403.32 577.05 401.03 575.72C398.9 574.49 397.49 572.31 395.37 571.19C394.87 570.92 394.35 571.36 394.45 571.89C394.99 574.57 398.08 576.55 400.34 577.78C403.09 579.27 406.1 579.98 409.22 580.02C409.28 580.02 409.32 580 409.37 579.99C417.86 598.51 427.43 616.62 437.77 634.1C438.14 634.73 439.04 634.18 438.74 633.53ZM393.4 545.45C385.23 542.56 379.42 538.2 373.23 532.27C372.7 531.59 371.55 532.48 372.03 533.2C376.61 540.11 384.99 545.17 392.95 547.08C394.02 547.33 394.42 545.81 393.4 545.45ZM501.74 589C504.39 583.89 507.66 578.66 507.36 572.91C507.06 567.16 500.95 561.44 495.82 564.06C492.65 565.67 491.32 569.62 488.35 571.58C483.76 574.61 477.05 571.23 475.03 566.11C473.01 561 474.51 555.15 476.92 550.21C479.32 545.26 482.6 540.73 484.39 535.53C486.19 530.33 486.17 524 482.47 519.94C478.77 515.87 470.77 516.11 468.71 521.21C467.89 523.22 468.04 525.69 466.59 527.31C464.23 529.96 459.45 528.03 457.99 524.8C456.53 521.57 457.22 517.83 457.54 514.3C458.98 498.26 451.53 481.7 438.56 472.14C434.56 469.19 429.4 466.82 424.73 468.52C417.93 470.99 416.63 480.07 417.69 487.23C419.22 497.7 423.36 507.79 429.63 516.32C432.3 519.94 435.35 523.32 437.41 527.32C439.46 531.32 440.41 536.2 438.59 540.31C436.77 544.43 431.53 547.11 427.52 545.07C423.11 542.83 421.51 536.11 416.6 535.55C411.39 534.95 408.74 542.02 409.82 547.15C411.49 555.04 417.81 561.77 425.59 563.91C429.45 564.98 433.65 565.01 437.22 566.85C440.78 568.69 443.39 573.46 441.08 576.74C438.78 580 433.88 579.31 429.99 580.24C421.89 582.18 418.36 593.99 424.06 600.06C431.34 607.8 445.1 603.23 454.07 608.92C459.98 612.67 462.47 620.09 463.12 627.05C463.77 634.02 463.03 641.13 464.47 647.98C465.91 654.83 470.28 661.75 477.1 663.31C493.49 667.06 492.88 647.48 492.26 637.06C491.26 620.36 493.97 603.95 501.74 589Z" />
			<path id="Path 60" class="shp3" d="M464 597.23C462 590.92 460.11 584.58 458.33 578.2C457.63 575.67 456.96 573.14 456.28 570.6C464.98 559.5 470.25 546.67 472.47 532.69C472.54 532.25 471.88 532.05 471.79 532.5C469.26 545.47 463.51 557.55 455.6 568.06C453.08 558.33 450.8 548.54 448.77 538.69C444.59 518.41 444.05 492.16 427.75 477.13C427.01 476.44 425.94 477.5 426.64 478.25C434.65 486.82 438.52 497.6 440.87 508.91C443.29 520.55 444.95 532.33 447.4 543.96C449.18 552.38 451.17 560.74 453.33 569.07C451.56 567.94 449.57 567.13 447.69 566.13C444.58 564.48 441.52 562.71 438.53 560.85C432.61 557.17 427.22 552.27 421.11 548.98C420.42 548.61 419.85 549.44 420.31 550.01C424.65 555.36 431.43 559.49 437.19 563.14C441.7 566.01 447.37 570.33 452.85 571.69C452.47 572.62 453.55 573.66 454.35 573C455.11 575.87 455.9 578.73 456.71 581.59C458.36 587.4 460.1 593.18 461.93 598.93C459.39 597.17 455.26 596.64 452.8 595.9C447.84 594.41 442.64 592.09 437.51 593.93C436.98 594.12 437.04 594.93 437.65 594.94C445.89 595.09 455.09 598.93 462.49 602.3C462.67 602.39 462.84 602.39 463.01 602.38C464.6 607.58 466.15 612.98 468.59 617.78C469.11 618.8 470.6 618.06 470.37 617.02C468.94 610.32 466.07 603.78 464 597.23ZM507.72 569.63C524.34 544.75 546.89 523.12 574.51 511.61C582.06 508.47 591.57 506.39 597.76 511.72C602.68 515.95 603.44 523.55 601.33 529.67C599.22 535.8 594.79 540.81 590.47 545.64C581.17 556.03 571.87 566.42 562.57 576.82C549.18 591.79 535.8 606.75 522.41 621.72C510.28 635.27 497.96 654.54 483.08 665C474.07 671.34 459.57 668.36 461.9 655.67C463.84 645.14 474.32 635.1 479.1 625.69C488.69 606.81 495.84 587.39 507.72 569.63Z" />
			<path id="Path 61" class="shp2" d="M582.89 527.15C574.8 533.22 567.41 540.25 560.51 547.82C561.09 544.76 561.28 541.61 561.97 538.57C562.81 534.81 564.12 531.2 565.11 527.49C565.25 526.99 564.55 526.7 564.29 527.14C560.64 533.25 557.65 542.54 558.55 549.71C558.56 549.78 558.59 549.85 558.61 549.92C547.03 562.94 536.82 577.4 527 591.28C526.02 592.65 525.05 594.03 524.08 595.41C524.09 595.11 524.11 594.82 524.13 594.52C524.18 594.48 524.24 594.44 524.28 594.37C526.46 589.58 525.68 583.08 526.28 577.86C527.04 571.24 528.44 564.69 529.09 558.06C529.15 557.39 528.18 557.36 527.98 557.91C525.8 563.94 524.81 570.42 523.97 576.75C523.28 581.94 521.46 589.09 523.25 594.13C523.13 594.93 523.14 595.74 523.32 596.49C516.65 605.96 509.98 615.43 503.02 624.69C503.64 621.84 503.18 618.75 503.08 615.85C502.95 612.44 502.76 609.03 502.76 605.61C502.76 604.97 501.81 604.98 501.78 605.61C501.4 611.52 499.99 619.07 501.9 624.78C502.01 625.12 502.4 625.24 502.69 625.13C502.22 625.76 501.76 626.39 501.28 627.02C496.48 633.33 491.54 639.59 485.78 645.07C479.82 650.73 472.98 655.09 466.02 659.4C465.57 659.68 465.86 660.5 466.4 660.3C480 655.17 490.39 644.14 499.18 632.95C504.69 625.95 509.93 618.74 515.1 611.48C515.18 611.69 515.32 611.87 515.53 611.95C519.23 613.4 524.55 610.03 527.38 607.9C527.82 607.57 527.43 606.84 526.94 607.15C525.01 608.34 522.96 609.14 520.76 609.65C519.11 610.03 517.32 609.95 515.76 610.55C518.77 606.31 521.76 602.05 524.76 597.79C531.13 588.74 537.53 579.69 544.19 570.85C550.85 571.66 558.31 568.04 563.68 564.54C564.08 564.28 563.74 563.71 563.31 563.91C560.03 565.47 556.56 566.7 553.04 567.63C550.6 568.28 548.06 568.48 545.6 568.99C547.76 566.15 549.93 563.33 552.16 560.54C561.67 548.64 572.22 538.1 583.3 527.69C583.58 527.43 583.2 526.92 582.89 527.15ZM591.86 600.08C611.42 575.93 629.64 548.73 632.79 517.82C633.44 511.4 633.4 504.75 631.14 498.71C628.88 492.66 624.09 487.28 617.84 485.68C611.44 484.04 604.54 486.57 599.44 490.78C594.35 494.99 590.75 500.69 587.36 506.36C568.59 537.72 553.36 571.32 543.27 606.49C538.21 624.13 533.97 642.44 532.18 660.73C530.29 680.06 548.81 655.2 552.33 649.97C564.21 632.36 578.5 616.55 591.86 600.08Z" />
			<path id="Path 62" class="shp3" d="M608.73 555.15C604.23 559.96 600.08 564.97 595.16 569.39C590.74 573.36 585.4 576.34 580.94 580.18C583.4 576.06 585.86 571.93 588.34 567.82C595.33 556.18 602.89 544.69 608.56 532.32C613.35 521.87 617.33 509.68 614.66 498.14C614.56 497.72 613.93 497.82 613.92 498.23C613.81 511.94 610.65 523.84 604.34 536.02C598.14 547.98 590.71 559.33 583.74 570.84C576.59 582.66 569.35 594.43 562.21 606.26C561.08 608.13 559.91 610 558.74 611.87C557.88 608.91 557 606.05 556.73 602.9C556.45 599.62 556.83 596.38 556.88 593.11C556.89 592.32 555.8 592.23 555.56 592.93C553.36 599.32 554.31 608.05 557.36 614.06C551.44 623.43 545.28 632.83 540.41 642.66C539.73 644.04 541.57 645.09 542.46 643.86C551.05 631.97 557.95 618.47 565.53 605.91C570.24 598.09 574.93 590.24 579.61 582.4C579.77 582.57 580.01 582.66 580.27 582.56C585.97 580.42 591.41 575.3 595.86 571.26C600.92 566.68 605.92 561.59 609.55 555.78C609.86 555.28 609.14 554.71 608.73 555.15Z" />
		</g>
		<path id="Path 64" fill-rule="evenodd" class="shp24" d="M796.16 500.62C790.88 509.23 782.46 515.36 774.26 521.25C756.61 533.93 738.97 546.62 721.32 559.3L645.11 614.09C622.1 630.63 596.87 655.8 570.71 666.71C560.69 670.88 548.59 668.64 543.02 661.75C537.15 668.09 531.05 672.23 532.18 660.73C532.44 658.05 532.77 655.38 533.13 652.71C530.64 657.07 527.77 661.11 524.18 664.38C517.83 670.17 502.27 669.33 499.44 659.32C498.49 655.94 498.97 652.49 499.93 649.06C494.62 655.17 489.06 660.8 483.08 665.01C475.82 670.11 465 669.16 462.29 661.97C455.48 668.43 442.83 668.93 434.87 664.67C427.52 670.35 417.62 673.23 410 671.36C385.29 665.29 364.62 643.69 344.38 630.88C322.04 616.75 299.7 602.61 277.35 588.47C261.84 578.66 246.32 568.84 230.8 559.02C223.59 554.46 216.2 549.69 212.59 541.59C208.99 533.48 210.09 521.09 218.09 511.11C228.18 498.52 243.87 495.22 256.35 494.93C296.4 494 330.19 507.89 356.7 529.76C354.48 525.78 352.25 521.79 350.02 517.8C346.76 511.95 343.45 505.9 343.99 498.96C344.54 492.02 349.94 483.89 359.19 480C370.87 475.09 382.92 478.69 391.64 483.17C404.61 489.82 415.43 498.19 424.34 507.73C421.02 501.32 418.73 494.37 417.68 487.23C416.63 480.07 417.93 470.99 424.73 468.52C429.4 466.82 434.56 469.19 438.56 472.14C451.53 481.7 458.98 498.26 457.54 514.3C457.22 517.83 456.53 521.57 457.99 524.8C459.45 528.03 464.23 529.96 466.59 527.31C468.04 525.69 467.89 523.22 468.71 521.21C470.77 516.11 478.77 515.87 482.47 519.94C486.17 524 486.18 530.33 484.39 535.53C482.6 540.73 479.32 545.26 476.92 550.21C474.51 555.15 473.01 561 475.03 566.11C477.05 571.23 483.76 574.61 488.35 571.58C491.32 569.62 492.65 565.67 495.82 564.06C500.3 561.77 505.54 565.85 506.98 570.76C507.23 570.38 507.47 570 507.72 569.63C524.34 544.75 546.89 523.12 574.51 511.61C578.11 510.11 582.16 508.87 586.08 508.54C586.51 507.81 586.93 507.08 587.36 506.36C590.75 500.69 594.35 494.99 599.44 490.78C604.54 486.57 611.44 484.04 617.84 485.68C624.09 487.29 628.88 492.66 631.14 498.71C633.4 504.75 633.44 511.4 632.79 517.82C631.85 527.03 629.56 535.9 626.32 544.47C630.76 539.47 635.38 534.59 640.29 529.89C673.96 497.64 715.54 472.32 761.44 464.12C773.98 461.87 789.14 461.91 796.77 472.11C802.83 480.19 801.43 492.01 796.16 500.62ZM459.51 620.31C460.03 624.66 461.76 629.25 463.43 633.94C463.39 631.64 463.33 629.34 463.12 627.05C462.68 622.37 461.4 617.48 458.82 613.64C459.02 615.86 459.24 618.09 459.51 620.31Z" />
	</g>
</svg>